# Blender v2.79 (sub 0) OBJ File: 'cylinder.blend'
# www.blender.org
o Circle.001
v 0.898741 -0.000000 2.169750
v 0.000000 0.000000 0.000000
v 0.458175 -0.000000 2.303395
v -1.952723 0.000000 -1.304767
v -1.660655 0.000000 -1.660654
v 0.000000 0.000000 -2.348520
v 0.458170 0.000000 -2.303394
v 1.304769 -0.000000 1.952723
v -2.169750 0.000000 -0.898739
v 1.660656 -0.000000 1.660654
v -2.303394 0.000000 -0.458173
v 1.952724 -0.000000 1.304767
v -2.348520 0.000000 0.000000
v 2.169751 -0.000000 0.898739
v -2.303394 -0.000000 0.458174
v 2.303395 -0.000000 0.458172
v -2.169750 -0.000000 0.898740
v 2.348521 0.000000 -0.000002
v -1.952723 -0.000000 1.304768
v 2.303394 0.000000 -0.458176
v -1.660655 -0.000000 1.660655
v 2.169749 0.000000 -0.898742
v -1.304768 -0.000000 1.952724
v 1.952722 0.000000 -1.304770
v -0.898739 -0.000000 2.169751
v -0.458173 0.000000 -2.303394
v 1.660653 0.000000 -1.660656
v -0.458173 -0.000000 2.303395
v -0.898740 0.000000 -2.169749
v 1.304766 0.000000 -1.952725
v 0.000001 -0.000000 2.348521
v -1.304768 0.000000 -1.952723
v 0.898737 0.000000 -2.169751
vt 0.744060 0.111698
vt 0.454436 0.500000
vt 0.669646 0.056990
vt 0.017555 0.645816
vt 0.051804 0.736793
vt 0.321909 0.980693
vt 0.409686 0.999904
vt 0.807344 0.181329
vt 0.000095 0.549236
vt 0.857067 0.263206
vt 0.000095 0.450764
vt 0.891316 0.354183
vt 0.017555 0.354184
vt 0.908776 0.450764
vt 0.051804 0.263207
vt 0.908776 0.549237
vt 0.101526 0.181330
vt 0.891316 0.645817
vt 0.164810 0.111699
vt 0.857066 0.736794
vt 0.239224 0.056991
vt 0.807344 0.818671
vt 0.321909 0.019307
vt 0.744060 0.888302
vt 0.409686 0.000096
vt 0.239224 0.943009
vt 0.669646 0.943010
vt 0.499183 0.000095
vt 0.164810 0.888300
vt 0.586961 0.980694
vt 0.586961 0.019306
vt 0.101526 0.818670
vt 0.499183 0.999905
vn -0.0000 1.0000 0.0000
s 1
f 1/1/1 2/2/1 3/3/1
f 4/4/1 2/2/1 5/5/1
f 6/6/1 2/2/1 7/7/1
f 8/8/1 2/2/1 1/1/1
f 9/9/1 2/2/1 4/4/1
f 10/10/1 2/2/1 8/8/1
f 11/11/1 2/2/1 9/9/1
f 12/12/1 2/2/1 10/10/1
f 13/13/1 2/2/1 11/11/1
f 14/14/1 2/2/1 12/12/1
f 15/15/1 2/2/1 13/13/1
f 16/16/1 2/2/1 14/14/1
f 17/17/1 2/2/1 15/15/1
f 18/18/1 2/2/1 16/16/1
f 19/19/1 2/2/1 17/17/1
f 20/20/1 2/2/1 18/18/1
f 21/21/1 2/2/1 19/19/1
f 22/22/1 2/2/1 20/20/1
f 23/23/1 2/2/1 21/21/1
f 24/24/1 2/2/1 22/22/1
f 25/25/1 2/2/1 23/23/1
f 26/26/1 2/2/1 6/6/1
f 27/27/1 2/2/1 24/24/1
f 28/28/1 2/2/1 25/25/1
f 29/29/1 2/2/1 26/26/1
f 30/30/1 2/2/1 27/27/1
f 31/31/1 2/2/1 28/28/1
f 32/32/1 2/2/1 29/29/1
f 33/33/1 2/2/1 30/30/1
f 3/3/1 2/2/1 31/31/1
f 5/5/1 2/2/1 32/32/1
f 7/7/1 2/2/1 33/33/1
